<svg width="60" height="60" viewBox="0 0 60 60" fill="none" xmlns="http://www.w3.org/2000/svg">
<path d="M22.3242 26.1961C21.5432 25.4151 21.5432 24.1487 22.3242 23.3677L28.4273 17.2646C29.2084 16.4835 30.4747 16.4835 31.2558 17.2646L37.3589 23.3677C38.1399 24.1487 38.1399 25.4151 37.3589 26.1961L31.2558 32.2992C30.4747 33.0803 29.2084 33.0803 28.4273 32.2992L22.3242 26.1961Z" fill="white"/>
<path fill-rule="evenodd" clip-rule="evenodd" d="M29.7574 46.71L37.2776 54.2976C38.0811 55.1083 39.3857 55.1267 40.2117 54.3389C41.0605 53.5295 41.0795 52.1809 40.2538 51.3479L32.1376 43.1589C30.8265 41.8361 28.6882 41.8361 27.3771 43.1589L19.2609 51.3479C18.4352 52.1809 18.4542 53.5295 19.303 54.3389C20.129 55.1267 21.4336 55.1083 22.2371 54.2976L29.7574 46.71Z" fill="white"/>
<path fill-rule="evenodd" clip-rule="evenodd" d="M11.4645 28.2929C9.51185 26.3403 9.51184 23.1745 11.4645 21.2219L26.2219 6.46447C28.1745 4.51185 31.3403 4.51184 33.2929 6.46447L48.0503 21.2219C50.003 23.1745 50.003 26.3403 48.0503 28.2929L33.2929 43.0503C31.3403 45.003 28.1745 45.003 26.2219 43.0503L11.4645 28.2929ZM14.2929 24.0503C13.9024 24.4408 13.9024 25.074 14.2929 25.4645L29.0503 40.2219C29.4408 40.6124 30.074 40.6124 30.4645 40.2219L45.2219 25.4645C45.6124 25.074 45.6124 24.4408 45.2219 24.0503L30.4645 9.29289C30.074 8.90237 29.4408 8.90237 29.0503 9.29289L14.2929 24.0503Z" fill="white"/>
</svg>
