<svg width="60" height="60" viewBox="0 0 60 60" fill="none" xmlns="http://www.w3.org/2000/svg">
<path fill-rule="evenodd" clip-rule="evenodd" d="M16.7382 30.4604L24.0258 23.3753C24.8177 22.6054 24.8356 21.3392 24.0656 20.5472C23.2956 19.7552 22.0294 19.7374 21.2374 20.5074L13.3873 28.1394C12.0799 29.4106 12.0799 31.5103 13.3873 32.7815L21.2374 40.4135C22.0294 41.1835 23.2956 41.1656 24.0656 40.3737C24.8356 39.5817 24.8177 38.3155 24.0258 37.5455L16.7382 30.4604Z" fill="white"/>
<path fill-rule="evenodd" clip-rule="evenodd" d="M36.3284 31.4984C35.6134 30.7305 35.6134 29.5405 36.3284 28.7726L46.612 17.7287C47.7128 16.5465 47.68 14.7051 46.5378 13.563L34.2698 1.2949C33.6398 0.664934 32.5626 1.1111 32.5626 2.002V58.269C32.5626 59.1599 33.6398 59.6061 34.2698 58.9761L46.5378 46.708C47.68 45.5659 47.7128 43.7245 46.612 42.5423L36.3284 31.4984ZM38.2698 40.0028C37.6398 39.3728 36.5626 39.819 36.5626 40.7099V48.6121C36.5626 49.503 37.6398 49.9492 38.2698 49.3192L42.2209 45.3681C42.6114 44.9776 42.6114 44.3444 42.2209 43.9539L38.2698 40.0028ZM38.2698 10.9518C37.6398 10.3218 36.5626 10.768 36.5626 11.6589V19.5611C36.5626 20.452 37.6398 20.8982 38.2698 20.2682L42.2209 16.3171C42.6114 15.9266 42.6114 15.2934 42.2209 14.9029L38.2698 10.9518Z" fill="white"/>
</svg>
