<svg width="60" height="60" viewBox="0 0 60 60" fill="none" xmlns="http://www.w3.org/2000/svg">
<path fill-rule="evenodd" clip-rule="evenodd" d="M28.314 31.5386V13.6289H32.0218V31.5386H28.314Z" fill="white"/>
<path fill-rule="evenodd" clip-rule="evenodd" d="M38.4487 24.1232C38.4487 25.147 37.6186 25.9771 36.5948 25.9771L23.7411 25.9771C22.7172 25.9771 21.8872 25.147 21.8872 24.1232C21.8872 23.0993 22.7172 22.2693 23.7411 22.2693L36.5948 22.2693C37.6186 22.2693 38.4487 23.0993 38.4487 24.1232Z" fill="white"/>
<path fill-rule="evenodd" clip-rule="evenodd" d="M30.1676 13.3705C32.2836 13.3705 33.999 11.6552 33.999 9.53917C33.999 7.42316 32.2836 5.70779 30.1676 5.70779C28.0516 5.70779 26.3362 7.42316 26.3362 9.53917C26.3362 11.6552 28.0516 13.3705 30.1676 13.3705ZM30.1676 17.0783C34.3314 17.0783 37.7068 13.7029 37.7068 9.53917C37.7068 5.3754 34.3314 2 30.1676 2C26.0038 2 22.6284 5.3754 22.6284 9.53917C22.6284 13.7029 26.0038 17.0783 30.1676 17.0783Z" fill="white"/>
<path d="M37.6527 10.4507C37.6887 10.1519 37.7068 9.84775 37.7068 9.53917C37.7068 8.64224 37.5506 7.78177 37.2632 6.98387C39.1233 6.25141 41.1233 5.86838 43.1823 5.86838C47.4957 5.86838 51.5372 7.53688 54.59 10.5896C57.6427 13.6424 59.3112 17.6962 59.2989 22.0096C59.2989 26.323 57.618 30.3769 54.5652 33.4296L31.3051 56.6033C30.9837 56.9246 30.5511 57.0853 30.1309 57.0853C29.7107 57.0853 29.2781 56.9123 28.9568 56.5909L5.74604 33.3802C2.69329 30.3274 1.00007 26.2859 1.00007 21.9725C0.987708 17.6591 2.66857 13.6053 5.72132 10.5525C8.7617 7.51216 12.8156 5.8313 17.1166 5.8313C19.1895 5.8313 21.2052 6.22234 23.0789 6.96738C22.7877 7.76992 22.6284 8.63606 22.6284 9.53917C22.6284 9.84542 22.6472 10.1473 22.6827 10.444C20.9675 9.61718 19.0744 9.18067 17.1166 9.18067C13.7054 9.18067 10.492 10.5155 8.08194 12.9255C5.65952 15.3356 4.33708 18.549 4.33708 21.9725C4.33708 25.3961 5.67188 28.6095 8.0943 31.0319L30.1309 53.0685L52.217 31.069C54.6394 28.6466 55.9742 25.4331 55.9618 22.0096C55.9618 18.5861 54.6394 15.3727 52.217 12.9503C49.7946 10.5402 46.5811 9.20539 43.17 9.20539C41.2334 9.20539 39.3567 9.63558 37.6527 10.4507Z" fill="white"/>
<path fill-rule="evenodd" clip-rule="evenodd" d="M30.2271 33.1717L42.2 45.1446L44.8218 42.5228L30.2271 27.9281L15.6324 42.5228L18.2542 45.1446L30.2271 33.1717Z" fill="white"/>
</svg>
