<svg width="60" height="60" viewBox="0 0 60 60" fill="none" xmlns="http://www.w3.org/2000/svg">
<path d="M30.1287 4.725C29.0908 4.725 28.2012 5.6386 28.2012 6.70447V12.5668C28.2012 13.6326 29.0908 14.5462 30.1287 14.5462C31.1666 14.5462 32.0562 13.6326 32.0562 12.5668V6.70447C32.0562 5.6386 31.1666 4.725 30.1287 4.725Z" fill="white"/>
<path d="M49.997 13.1758C49.2556 12.4145 48.0694 12.4145 47.3281 13.1758L43.2506 17.3632C42.5093 18.1245 42.5093 19.3427 43.2506 20.104C43.9179 20.8653 45.1782 20.8653 45.9195 20.104L49.997 15.9166C50.7383 15.1553 50.7383 13.9372 49.997 13.1758Z" fill="white"/>
<path d="M17.0067 17.3632L12.9293 13.1758C12.1879 12.4145 11.0018 12.4145 10.2604 13.1758C9.51906 13.9372 9.51906 15.1553 10.2604 15.9166L14.3379 20.104C15.0792 20.8653 16.2654 20.8653 17.0067 20.104C17.7481 19.3427 17.7481 18.1245 17.0067 17.3632Z" fill="white"/>
<path fill-rule="evenodd" clip-rule="evenodd" d="M27.4969 6.70447C27.4969 5.23656 28.7034 4 30.1287 4C31.554 4 32.7605 5.23656 32.7605 6.70447V12.5668C32.7605 14.0347 31.554 15.2712 30.1287 15.2712C28.7034 15.2712 27.4969 14.0347 27.4969 12.5668V6.70447ZM46.8307 12.6626C47.8469 11.6189 49.4781 11.6189 50.4944 12.6626C51.5115 13.7072 51.5115 15.3853 50.4944 16.4299L46.4169 20.6173C45.4204 21.6406 43.7035 21.6855 42.7403 20.6039C41.7361 19.5584 41.7404 17.8901 42.7532 16.8499L46.8307 12.6626ZM43.2506 20.104C43.9179 20.8653 45.1782 20.8653 45.9195 20.104L49.997 15.9166C50.7383 15.1553 50.7383 13.9372 49.997 13.1758C49.2556 12.4145 48.0694 12.4145 47.3281 13.1758L43.2506 17.3632C42.5093 18.1245 42.5093 19.3427 43.2506 20.104ZM13.4267 12.6626L17.5041 16.8499C18.5213 17.8945 18.5213 19.5726 17.5041 20.6173C16.4879 21.6609 14.8567 21.6609 13.8404 20.6173L9.763 16.4299C8.74581 15.3853 8.74581 13.7072 9.763 12.6626C10.7793 11.6189 12.4104 11.6189 13.4267 12.6626ZM30.1287 4.725C29.0908 4.725 28.2012 5.6386 28.2012 6.70447V12.5668C28.2012 13.6326 29.0908 14.5462 30.1287 14.5462C31.1666 14.5462 32.0562 13.6326 32.0562 12.5668V6.70447C32.0562 5.6386 31.1666 4.725 30.1287 4.725ZM12.9293 13.1758L17.0067 17.3632C17.7481 18.1245 17.7481 19.3427 17.0067 20.104C16.2654 20.8653 15.0792 20.8653 14.3379 20.104L10.2604 15.9166C9.51906 15.1553 9.51906 13.9372 10.2604 13.1758C11.0018 12.4145 12.1879 12.4145 12.9293 13.1758Z" fill="white"/>
<path fill-rule="evenodd" clip-rule="evenodd" d="M20.5282 26.1426C21.3898 26.964 21.4157 28.3214 20.5859 29.1744C18.3212 31.5023 16.932 34.6617 16.932 38.1467C16.932 45.2913 22.7827 51.0831 30 51.0831C37.2173 51.0831 43.068 45.2913 43.068 38.1467C43.068 34.6617 41.6788 31.5023 39.4141 29.1744C38.5843 28.3214 38.6102 26.964 39.4718 26.1426C40.3335 25.3212 41.7046 25.3467 42.5344 26.1997C45.5452 29.2946 47.4 33.5084 47.4 38.1467C47.4 47.6596 39.6098 55.3714 30 55.3714C20.3902 55.3714 12.6 47.6596 12.6 38.1467C12.6 33.5084 14.4548 29.2946 17.4656 26.1997C18.2954 25.3467 19.6665 25.3212 20.5282 26.1426Z" fill="white"/>
<path d="M44.4997 24.7143C48.7964 24.7143 51.0145 26.235 52.9714 27.5771C54.231 28.4408 55.2967 29.1715 56.9396 29.4999C58.0614 29.7242 59 30.6131 59 31.7571V31.7571C59 32.9012 58.0671 33.8486 56.9329 33.699C53.9375 33.3039 52.1437 32.074 50.5283 30.9658L50.5273 30.9651C48.8092 29.7873 47.4523 28.8571 44.4997 28.8571C41.5466 28.8571 40.1892 29.7877 38.4712 30.9658C36.5142 32.3079 34.2962 33.8286 29.9989 33.8286C25.7022 33.8286 23.4841 32.3079 21.5277 30.9658L21.5267 30.9651C19.8086 29.7873 18.4518 28.8571 15.4992 28.8571C12.5466 28.8571 11.1892 29.7877 9.47117 30.9658C7.85578 32.074 6.06203 33.3039 3.06707 33.699C1.93288 33.8486 1 32.9012 1 31.7571V31.7571C1 30.6131 1.9386 29.7242 3.0604 29.4998C4.70285 29.1714 5.76851 28.4408 7.028 27.5771C8.98442 26.235 11.2025 24.7143 15.4992 24.7143C19.7964 24.7143 22.0145 26.235 23.9709 27.5771C25.6889 28.7552 27.0463 29.6857 29.9989 29.6857C32.952 29.6857 34.3094 28.7552 36.028 27.5771C37.9844 26.235 40.2025 24.7143 44.4997 24.7143Z" fill="white"/>
</svg>
